<svg width="669" height="297" viewBox="0 0 669 297" fill="none" xmlns="http://www.w3.org/2000/svg">
<path d="M378.579 79.0548L382.348 78.6704C385.733 78.2604 386.912 77.5685 386.912 76.9791V20.0904C386.912 19.3985 386.323 19.1935 381.374 18.6041L378.809 18.2966L378.527 17.7072L411.144 17.5022C428.709 17.5022 437.94 22.2686 437.94 32.8776C437.94 40.4115 432.068 46.2541 422.555 47.9454L434.453 67.677C439.914 76.7741 441.402 78.4654 446.351 79.0548H447.248L447.633 79.6698H423.35L422.452 77.7735L407.246 48.4323C405.838 48.1705 404.45 47.8109 403.092 47.356V77.2866C403.092 77.9785 403.374 78.3629 408.452 78.7729L412.118 79.0548L412.401 79.6698H378.297L378.579 79.0548ZM420.837 32.365C420.837 24.1392 415.272 18.886 406.169 18.8091H403.092V46.4591C403.58 46.4591 404.067 46.4591 404.964 46.4591C414.99 46.5616 420.837 41.5902 420.837 32.365Z" fill="#303030"/>
<path d="M480.147 71.7515H479.839C474.89 76.3128 468.736 80.9767 462.3 80.9767C460.874 80.9718 459.468 80.6387 458.192 80.0032C456.916 79.3677 455.803 78.4469 454.941 77.3122C452.581 74.9291 451.581 70.3677 451.787 65.3964L452.171 38.7458C452.171 38.3358 451.787 37.9514 446.709 37.5414H445.325L445.043 36.9264H466.172L465.864 64.397C465.659 70.6496 468.941 72.7253 473.711 72.7253C475.943 72.6383 478.104 71.9184 479.942 70.6496V39.0277C479.942 38.0283 479.249 37.9258 474.813 37.6183H473.428L473.121 37.0033H493.968V66.7801C493.968 72.5203 494.557 73.4172 497.84 74.3141L500.404 74.8009V75.1853L479.89 81.233L480.147 71.7515Z" fill="#303030"/>
<path d="M503.147 79.0548H505.045C508.019 78.8754 509.199 78.7729 509.199 77.5685V42.9741H501.276L503.84 37.0289H509.199L509.609 28.5981C509.891 20.4748 521.199 14.0428 531.713 14.0428C539.662 14.0428 541.841 16.8104 541.841 20.0904C541.755 21.7014 541.041 23.2147 539.853 24.3066C538.664 25.3984 537.096 25.9822 535.482 25.9331C531.815 25.9331 529.943 23.6524 528.456 17.3998L528.251 16.5285L526.174 15.7341C523.994 16.221 523.2 17.6048 523.2 27.2143V36.9264H534.738L532.02 42.6922H523.2V77.5685C523.2 78.3629 523.687 78.8754 528.046 78.9523H531.533L531.815 79.5673H502.865L503.147 79.0548Z" fill="#303030"/>
<path d="M536.969 79.0548H538.867C541.841 78.8754 543.021 78.7729 543.021 77.5685V42.9741H535.097L537.662 37.0289H543.021L543.431 28.5981C543.713 20.4748 555.021 14.0428 565.535 14.0428C573.484 14.0428 575.663 16.8104 575.663 20.0904C575.577 21.7014 574.863 23.2147 573.675 24.3066C572.486 25.3984 570.917 25.9822 569.304 25.9331C565.637 25.9331 563.765 23.6524 562.278 17.3998L562.073 16.5285L559.996 15.7341C557.816 16.221 557.021 17.6048 557.021 27.2143V36.9264H569.842L568.278 42.6922H557.073V77.5685C557.073 78.3629 557.56 78.8754 561.919 78.9523H565.381L565.688 79.5673H536.687L536.969 79.0548Z" fill="#303030"/>
<path d="M571.817 79.0548H573.099C576.176 78.8754 576.689 78.6704 576.689 77.4916V26.7274C576.689 20.7823 575.996 19.9879 572.612 19.0398L570.432 18.4504V18.0404L590.766 13.0946V77.5685C590.766 78.3629 591.561 78.7729 594.92 78.9523H596.125L596.407 79.5673H571.304L571.817 79.0548Z" fill="#303030"/>
<path d="M599.151 59.1437C599.123 55.9647 599.735 52.8124 600.952 49.8749C602.168 46.9374 603.964 44.2748 606.233 42.046C608.502 39.8171 611.196 38.0677 614.156 36.9019C617.115 35.7362 620.28 35.178 623.46 35.2607C636.281 35.2607 641.23 43.4865 641.23 49.611C641.219 50.248 641.151 50.8828 641.025 51.5073C641.025 51.5073 619.793 51.1998 614.229 51.0204C614.139 52.437 614.139 53.8577 614.229 55.2743C614.229 65.7808 619.87 73.4172 629.101 73.4172C631.652 73.5385 634.178 72.8636 636.328 71.4861C638.478 70.1087 640.147 68.0968 641.102 65.7295L641.691 66.037C637.922 75.8516 631.281 81.2842 620.562 81.2842C617.682 81.304 614.827 80.7391 612.171 79.6239C609.516 78.5087 607.114 76.8663 605.112 74.7962C603.11 72.7262 601.55 70.2715 600.525 67.581C599.501 64.8905 599.033 62.0201 599.151 59.1437ZM628.229 49.9185C628.229 43.9734 627.127 36.6445 622.075 36.6445C618.613 36.6445 615.126 41.3084 614.383 49.9185H628.229Z" fill="#303030"/>
<path d="M378.579 181.557L382.348 181.173C385.835 180.686 386.912 180.071 386.912 179.481V122.593C386.912 121.901 386.117 121.696 381.374 121.106L378.809 120.799L378.527 120.209H411.554C433.658 120.209 445.376 130.998 445.376 151.139C445.376 168.078 429.504 182.069 410.836 182.069H378.297L378.579 181.557ZM427.786 152.908C427.786 131.895 421.042 121.491 407.939 121.491H403.092V179.584L409.734 181.07C421.324 181.173 427.786 168.385 427.786 152.908Z" fill="#303030"/>
<path d="M450.581 161.646C450.553 158.467 451.165 155.315 452.382 152.377C453.598 149.439 455.395 146.777 457.663 144.548C459.932 142.319 462.626 140.57 465.586 139.404C468.546 138.238 471.71 137.68 474.89 137.763C487.711 137.763 492.634 145.989 492.634 152.113C492.619 152.749 492.559 153.382 492.455 154.009C492.455 154.009 471.223 153.702 465.659 153.523C465.569 154.939 465.569 156.36 465.659 157.776C465.659 168.283 471.326 175.919 480.557 175.919C483.108 176.041 485.634 175.366 487.784 173.988C489.934 172.611 491.602 170.599 492.557 168.232L493.147 168.539C489.378 178.354 482.736 183.914 472.018 183.914C469.124 183.939 466.256 183.373 463.588 182.251C460.92 181.13 458.51 179.476 456.503 177.392C454.497 175.307 452.937 172.836 451.918 170.129C450.9 167.421 450.445 164.535 450.581 161.646ZM479.659 152.421C479.659 146.476 478.557 139.147 473.505 139.147C470.018 139.147 466.556 143.811 465.813 152.421H479.659Z" fill="#303030"/>
<path d="M498.686 180.865L498.404 168.385L498.788 168.59L501.353 172.639C505.404 179.379 508.199 182.659 514.43 182.659C515.421 182.762 516.423 182.647 517.365 182.323C518.307 181.999 519.167 181.473 519.885 180.783C520.603 180.092 521.161 179.253 521.521 178.325C521.881 177.396 522.034 176.4 521.969 175.407C521.969 170.564 517.122 168.59 511.712 166.31C504.276 163.337 498.429 160.365 498.429 152.626C498.429 143.708 505.455 138.045 515.686 138.045C518.993 138.113 522.27 138.683 525.405 139.736L529.969 138.839L530.456 152.421L530.072 152.626L520.84 140.53C519.228 139.532 517.378 138.983 515.481 138.942C514.543 138.89 513.605 139.041 512.73 139.384C511.855 139.727 511.065 140.255 510.413 140.931C509.761 141.607 509.262 142.416 508.951 143.302C508.64 144.188 508.523 145.13 508.609 146.066C508.609 150.524 513.584 152.498 519.225 154.778C525.482 157.546 532.815 160.339 532.815 168.744C532.815 176.176 527.354 183.53 514.276 183.53C508.964 183.548 503.69 182.646 498.686 180.865Z" fill="#303030"/>
<path d="M537.482 181.557H538.662C541.739 181.378 542.841 181.173 542.841 179.994V152.523C542.841 146.373 542.123 145.579 538.764 144.682L536.482 144.195V143.811L556.816 138.147V180.071C556.816 180.865 557.406 180.968 561.945 181.454H562.74L563.022 182.069H537.174L537.482 181.557ZM541.046 124.771C540.985 123.092 541.427 121.432 542.316 120.006C543.205 118.58 544.5 117.451 546.035 116.766C547.57 116.08 549.275 115.869 550.932 116.159C552.588 116.448 554.12 117.226 555.33 118.392C556.541 119.558 557.376 121.059 557.727 122.702C558.078 124.345 557.93 126.056 557.302 127.615C556.673 129.173 555.593 130.508 554.2 131.449C552.807 132.39 551.164 132.893 549.483 132.894C548.389 132.939 547.297 132.762 546.273 132.374C545.25 131.985 544.315 131.394 543.527 130.635C542.739 129.875 542.112 128.964 541.686 127.956C541.26 126.949 541.042 125.865 541.046 124.771Z" fill="#303030"/>
<path d="M565.637 175.509C565.637 169.872 571.484 166.207 577.638 164.311C571.689 162.338 568.124 158.571 568.124 152.421C568.124 144.733 577.15 137.942 587.356 137.942C591.521 137.914 595.633 138.871 599.356 140.735L612.742 138.66L611.306 143.503L601.946 142.299V142.478C603.387 143.572 604.556 144.982 605.365 146.599C606.174 148.217 606.601 149.998 606.613 151.806C606.613 159.493 598.177 165.592 587.176 165.592C584.648 165.591 582.124 165.36 579.638 164.9C576.15 165.695 573.971 167.77 573.971 170.025C573.971 172.281 576.535 173.306 582.202 173.306C584.997 173.306 593.023 172.998 596.587 172.998C605.716 172.998 611.562 177.662 611.562 185.196C611.562 195.984 599.767 204.722 584.202 204.722C570.791 204.722 565.15 201.929 565.15 195.497C565.15 190.372 571.791 187.81 577.638 185.58C571.201 185.221 565.637 180.378 565.637 175.509ZM603.126 192.473C603.126 186.708 598.869 185.145 589.638 184.786C586.261 184.773 582.887 184.97 579.535 185.375C575.766 186.861 575.15 189.655 575.15 193.319C575.15 198.752 580.509 202.724 589.151 202.724C597.792 202.724 603.126 198.419 603.126 192.473ZM577.74 185.426H577.535H577.74ZM593.305 151.934C593.305 143.606 591.228 139.121 587.253 139.121C583.279 139.121 581.715 142.888 581.715 151.934C581.715 160.647 583.587 164.413 587.459 164.413C591.33 164.413 593.305 160.954 593.305 151.934Z" fill="#303030"/>
<path d="M614.536 181.557H615.716C618.793 181.378 619.896 181.173 619.896 179.994V152.523C619.896 146.373 619.203 145.579 615.819 144.682L613.536 144.195V143.811L634.178 138.147L633.87 147.065C638.537 143.016 644.871 137.942 651.333 137.942C652.823 137.942 654.297 138.252 655.661 138.852C657.025 139.452 658.25 140.329 659.256 141.427C661.538 143.811 662.436 148.551 662.436 153.318V179.968C662.436 180.583 662.923 180.865 667.564 181.454H668.462L668.769 182.069H643.127L643.409 181.454H645.204C648.666 181.275 648.486 180.686 648.486 179.891V154.701C648.486 148.269 645.204 146.271 640.794 146.271C638.286 146.252 635.83 146.984 633.742 148.372V180.071C633.742 180.865 634.153 181.173 637.614 181.454H639.101L639.307 182.069H613.998L614.536 181.557Z" fill="#303030"/>
<path d="M379.963 254.333C379.963 236.882 392.784 221.43 417.657 221.43C422.805 221.403 427.892 222.552 432.529 224.787L439.376 223.301L440.273 243.801H439.683L428.862 225.069C425.368 223.401 421.528 222.585 417.657 222.686C404.836 222.686 397.323 235.499 397.323 253.898C397.323 273.04 405.862 284.648 416.785 284.648C427.196 284.648 433.94 279.293 438.196 269.965L441.863 262.431H442.453L439.299 281.676L436.017 282.163C429.722 284.335 423.134 285.536 416.477 285.725C393.553 285.648 379.963 271.169 379.963 254.333Z" fill="#303030"/>
<path d="M447.325 263.149C447.325 250.567 457.325 240.444 472.326 240.444C487.326 240.444 496.506 250.695 496.506 262.944C496.506 275.756 486.685 286.007 471.531 286.007C456.376 286.007 447.325 275.654 447.325 263.149ZM481.352 263.661C481.352 250.848 479.07 245.518 476.582 243.161C475.987 242.605 475.284 242.177 474.516 241.903C473.749 241.63 472.933 241.517 472.121 241.572C465.582 241.572 462.3 249.798 462.3 262.79C462.3 275.782 464.684 281.112 467.069 283.7C467.67 284.272 468.385 284.709 469.167 284.983C469.95 285.257 470.782 285.361 471.608 285.289C477.967 285.161 481.352 276.525 481.352 263.661Z" fill="#303030"/>
<path d="M501.276 278.216C501.336 276.293 502.148 274.469 503.539 273.138C504.929 271.806 506.786 271.072 508.712 271.093C510.166 271.113 511.582 271.566 512.778 272.393C513.975 273.22 514.898 274.384 515.431 275.737C515.963 277.089 516.081 278.57 515.77 279.99C515.458 281.41 514.731 282.705 513.681 283.711C512.631 284.717 511.306 285.389 509.873 285.64C508.44 285.891 506.965 285.71 505.635 285.121C504.305 284.532 503.18 283.561 502.404 282.332C501.628 281.102 501.235 279.67 501.276 278.216Z" fill="#303030"/>
<path d="M297.191 297H189.135L0 107.986V0L297.191 297Z" fill="#303030"/>
<path d="M297.191 108.268C297.211 136.849 285.876 164.27 265.677 184.504L112.286 31.6732L80.516 0H188.853C217.586 0 245.142 11.4068 265.46 31.7109C285.777 52.0151 297.191 79.5535 297.191 108.268Z" fill="#303030"/>
</svg>
